<svg width="80" height="81" viewBox="0 0 80 81" fill="none" xmlns="http://www.w3.org/2000/svg">
<path d="M36.25 29.25C34.025 29.25 31.8499 29.9098 29.9998 31.146C28.1498 32.3821 26.7078 34.1391 25.8564 36.1948C25.0049 38.2505 24.7821 40.5125 25.2162 42.6948C25.6503 44.8771 26.7217 46.8816 28.2951 48.4549C29.8684 50.0283 31.873 51.0997 34.0552 51.5338C36.2375 51.9679 38.4995 51.7451 40.5552 50.8936C42.6109 50.0422 44.3679 48.6002 45.604 46.7502C46.8402 44.9001 47.5 42.725 47.5 40.5C47.4967 37.5173 46.3104 34.6578 44.2013 32.5487C42.0922 30.4396 39.2327 29.2533 36.25 29.25ZM36.25 49.25C34.5194 49.25 32.8277 48.7368 31.3888 47.7754C29.9498 46.8139 28.8283 45.4473 28.1661 43.8485C27.5038 42.2496 27.3305 40.4903 27.6681 38.793C28.0058 37.0956 28.8391 35.5365 30.0628 34.3128C31.2865 33.0891 32.8456 32.2557 34.543 31.9181C36.2403 31.5805 37.9996 31.7538 39.5985 32.4161C41.1973 33.0783 42.5639 34.1998 43.5254 35.6388C44.4868 37.0777 45 38.7694 45 40.5C44.9974 42.8198 44.0746 45.0439 42.4343 46.6843C40.7939 48.3246 38.5698 49.2473 36.25 49.25Z" fill="#8F90A6"/>
<path d="M36.25 36.75C36.5815 36.75 36.8995 36.8817 37.1339 37.1161C37.3683 37.3505 37.5 37.6685 37.5 38H40C39.9968 37.2272 39.7549 36.4742 39.3074 35.8441C38.8599 35.214 38.2286 34.7376 37.5 34.48V33H35V34.48C34.1666 34.7735 33.4641 35.3525 33.0167 36.1144C32.5693 36.8763 32.406 37.772 32.5558 38.6427C32.7055 39.5135 33.1585 40.3032 33.8347 40.8719C34.5109 41.4406 35.3665 41.7517 36.25 41.75C36.4972 41.75 36.7389 41.8233 36.9445 41.9607C37.15 42.098 37.3102 42.2932 37.4048 42.5216C37.4995 42.7501 37.5242 43.0014 37.476 43.2439C37.4278 43.4863 37.3087 43.7091 37.1339 43.8839C36.9591 44.0587 36.7363 44.1778 36.4939 44.226C36.2514 44.2742 36.0001 44.2495 35.7716 44.1548C35.5432 44.0602 35.348 43.9 35.2107 43.6945C35.0733 43.4889 35 43.2472 35 43H32.5C32.5032 43.7728 32.7451 44.5258 33.1926 45.1559C33.6401 45.786 34.2714 46.2624 35 46.52V48H37.5V46.52C38.3334 46.2265 39.0359 45.6475 39.4833 44.8856C39.9307 44.1237 40.094 43.228 39.9442 42.3573C39.7945 41.4865 39.3415 40.6968 38.6653 40.1281C37.9891 39.5594 37.1335 39.2483 36.25 39.25C35.9185 39.25 35.6005 39.1183 35.3661 38.8839C35.1317 38.6495 35 38.3315 35 38C35 37.6685 35.1317 37.3505 35.3661 37.1161C35.6005 36.8817 35.9185 36.75 36.25 36.75Z" fill="#8F90A6"/>
<path d="M73.7498 40.5001H68.7498C68.7467 37.1729 68.2267 33.8664 67.2085 30.6989C68.5111 29.8354 69.4424 28.5147 69.8183 26.9978C70.1941 25.4809 69.9872 23.8781 69.2385 22.5064C68.4897 21.1346 67.2535 20.0937 65.7743 19.5894C64.2951 19.0851 62.6806 19.154 61.2498 19.7826C56.4715 13.984 49.8171 10.0374 42.4373 8.62513C42.2919 7.08476 41.5772 5.65401 40.4329 4.61263C39.2886 3.57125 37.797 2.99414 36.2498 2.99414C34.7025 2.99414 33.211 3.57125 32.0667 4.61263C30.9224 5.65401 30.2077 7.08476 30.0623 8.62513C22.8253 10.012 16.2814 13.8353 11.5198 19.4589C11.0238 19.3262 10.5132 19.2561 9.99977 19.2501C8.76849 19.2518 7.56515 19.6172 6.54076 20.3003C5.51636 20.9834 4.71657 21.9539 4.24175 23.0899C3.76693 24.226 3.63825 25.4769 3.87184 26.6859C4.10544 27.8948 4.6909 29.0078 5.55477 29.8851C3.24193 36.4795 3.14931 43.6494 5.29102 50.3014C3.9884 51.1648 3.05712 52.4856 2.68126 54.0025C2.30539 55.5194 2.5123 57.1222 3.26108 58.4939C4.00986 59.8656 5.24602 60.9066 6.72521 61.4109C8.2044 61.9152 9.81897 61.8463 11.2498 61.2176C16.0281 67.0163 22.6824 70.9629 30.0623 72.3751C30.2077 73.9155 30.9224 75.3463 32.0667 76.3876C33.211 77.429 34.7025 78.0061 36.2498 78.0061C37.797 78.0061 39.2886 77.429 40.4329 76.3876C41.5772 75.3463 42.2919 73.9155 42.4373 72.3751C45.0499 71.8758 47.5903 71.0532 49.9998 69.9264V74.2501C49.9998 75.2447 50.3949 76.1985 51.0981 76.9018C51.8014 77.605 52.7552 78.0001 53.7498 78.0001H73.7498C74.7443 78.0001 75.6981 77.605 76.4014 76.9018C77.1047 76.1985 77.4998 75.2447 77.4998 74.2501V44.2501C77.4998 43.2556 77.1047 42.3017 76.4014 41.5985C75.6981 40.8952 74.7443 40.5001 73.7498 40.5001V40.5001ZM66.2498 40.5001H53.7498C52.8008 40.5021 51.8883 40.866 51.1985 41.5176C51.221 41.1801 51.2498 40.8439 51.2498 40.5001C51.2483 38.3757 50.7922 36.2762 49.9123 34.3426L58.8923 29.3839C59.5832 30.2789 60.51 30.9637 61.5685 31.3611C62.6271 31.7586 63.7755 31.853 64.8848 31.6339C65.7865 34.503 66.2468 37.4926 66.2498 40.5001V40.5001ZM36.2498 53.0001C33.7775 53.0001 31.3608 52.267 29.3051 50.8935C27.2495 49.52 25.6474 47.5678 24.7013 45.2837C23.7552 42.9996 23.5076 40.4863 23.9899 38.0615C24.4723 35.6367 25.6628 33.4095 27.4109 31.6613C29.1591 29.9131 31.3864 28.7226 33.8111 28.2403C36.2359 27.758 38.7492 28.0055 41.0333 28.9516C43.3174 29.8977 45.2696 31.4999 46.6431 33.5555C48.0167 35.6111 48.7498 38.0279 48.7498 40.5001C48.7461 43.8142 47.428 46.9915 45.0846 49.3349C42.7412 51.6784 39.5639 52.9965 36.2498 53.0001V53.0001ZM67.4998 25.5001C67.4998 26.2418 67.2798 26.9668 66.8678 27.5835C66.4557 28.2002 65.87 28.6809 65.1848 28.9647C64.4996 29.2485 63.7456 29.3228 63.0182 29.1781C62.2907 29.0334 61.6226 28.6762 61.0981 28.1518C60.5737 27.6273 60.2165 26.9592 60.0718 26.2317C59.9271 25.5043 60.0014 24.7503 60.2852 24.0651C60.569 23.3798 61.0497 22.7942 61.6664 22.3821C62.2831 21.9701 63.0081 21.7501 63.7498 21.7501C64.7443 21.7501 65.6981 22.1452 66.4014 22.8485C67.1047 23.5517 67.4998 24.5056 67.4998 25.5001ZM42.181 11.1251C48.8443 12.4527 54.8518 16.0224 59.2035 21.2401C58.4567 22.008 57.9282 22.9611 57.6726 24.0014C57.4171 25.0416 57.4437 26.1311 57.7498 27.1576L48.7035 32.1576C47.4503 30.2885 45.7925 28.7254 43.8531 27.584C41.9136 26.4425 39.7423 25.7521 37.4998 25.5639V15.3751C38.5874 15.1469 39.5946 14.6328 40.4175 13.8857C41.2403 13.1387 41.8491 12.1858 42.181 11.1251ZM36.2498 5.50013C36.9914 5.50013 37.7165 5.72006 38.3332 6.13212C38.9498 6.54417 39.4305 7.12984 39.7143 7.81507C39.9981 8.50029 40.0724 9.25429 39.9277 9.98172C39.783 10.7091 39.4259 11.3773 38.9014 11.9018C38.377 12.4262 37.7088 12.7834 36.9814 12.9281C36.2539 13.0728 35.4999 12.9985 34.8147 12.7147C34.1295 12.4309 33.5438 11.9502 33.1318 11.3335C32.7197 10.7168 32.4998 9.99181 32.4998 9.25013C32.4998 8.25557 32.8949 7.30174 33.5981 6.59848C34.3014 5.89522 35.2552 5.50013 36.2498 5.50013V5.50013ZM30.3185 11.1251C30.6505 12.1858 31.2592 13.1387 32.0821 13.8857C32.9049 14.6328 33.9121 15.1469 34.9998 15.3751V25.5651C32.7575 25.7526 30.5861 26.4422 28.6465 27.5827C26.7069 28.7233 25.0487 30.2856 23.7948 32.1539L15.8148 27.7501C16.3097 26.5073 16.3846 25.1368 16.028 23.8474C15.6714 22.5581 14.9029 21.4208 13.8398 20.6089C18.1468 15.7295 23.9358 12.3978 30.3185 11.1251V11.1251ZM9.99977 21.7501C10.7414 21.7501 11.4665 21.9701 12.0832 22.3821C12.6998 22.7942 13.1805 23.3798 13.4643 24.0651C13.7481 24.7503 13.8224 25.5043 13.6777 26.2317C13.533 26.9592 13.1759 27.6273 12.6514 28.1518C12.127 28.6762 11.4588 29.0334 10.7314 29.1781C10.0039 29.3228 9.24993 29.2485 8.56471 28.9647C7.87948 28.6809 7.29381 28.2002 6.88176 27.5835C6.4697 26.9668 6.24977 26.2418 6.24977 25.5001C6.24977 24.5056 6.64486 23.5517 7.34812 22.8485C8.05138 22.1452 9.00521 21.7501 9.99977 21.7501V21.7501ZM6.24977 40.5001C6.25315 37.3767 6.74838 34.2733 7.71727 31.3039C8.85832 31.7635 10.1107 31.8713 11.3136 31.6136C12.5164 31.3559 13.6147 30.7444 14.4673 29.8576L22.5923 34.3426C21.7109 36.2758 21.2548 38.3756 21.2548 40.5001C21.2548 42.6247 21.7109 44.7245 22.5923 46.6576L13.6123 51.6164C12.9213 50.7213 11.9946 50.0366 10.936 49.6392C9.87745 49.2417 8.72904 49.1472 7.61977 49.3664C6.71634 46.4975 6.25439 43.5079 6.24977 40.5001V40.5001ZM4.99977 55.5001C4.99977 54.7585 5.2197 54.0334 5.63176 53.4167C6.04381 52.8001 6.62948 52.3194 7.31471 52.0356C7.99993 51.7518 8.75393 51.6775 9.48136 51.8222C10.2088 51.9669 10.877 52.324 11.4014 52.8485C11.9259 53.3729 12.283 54.0411 12.4277 54.7685C12.5724 55.496 12.4981 56.25 12.2143 56.9352C11.9305 57.6204 11.4498 58.2061 10.8332 58.6181C10.2165 59.0302 9.49145 59.2501 8.74977 59.2501C7.75521 59.2501 6.80138 58.855 6.09812 58.1518C5.39486 57.4485 4.99977 56.4947 4.99977 55.5001V55.5001ZM30.3185 69.8751C23.6552 68.5476 17.6477 64.9778 13.296 59.7601C14.0429 58.9923 14.5713 58.0391 14.8269 56.9989C15.0824 55.9587 15.0558 54.8691 14.7498 53.8426L23.796 48.8426C25.0493 50.7117 26.707 52.2749 28.6465 53.4163C30.5859 54.5577 32.7573 55.2481 34.9998 55.4364V65.6251C33.9121 65.8534 32.9049 66.3675 32.0821 67.1145C31.2592 67.8616 30.6505 68.8145 30.3185 69.8751V69.8751ZM36.2498 75.5001C35.5081 75.5001 34.7831 75.2802 34.1664 74.8681C33.5497 74.4561 33.069 73.8704 32.7852 73.1852C32.5014 72.5 32.4271 71.746 32.5718 71.0185C32.7165 70.2911 33.0737 69.6229 33.5981 69.0985C34.1226 68.574 34.7907 68.2169 35.5182 68.0722C36.2456 67.9275 36.9996 68.0018 37.6848 68.2856C38.3701 68.5694 38.9557 69.0501 39.3678 69.6667C39.7798 70.2834 39.9998 71.0085 39.9998 71.7501C39.9998 72.7447 39.6047 73.6985 38.9014 74.4018C38.1982 75.105 37.2443 75.5001 36.2498 75.5001ZM42.1823 69.8751C41.8502 68.8143 41.2413 67.8613 40.4182 67.1142C39.5951 66.3672 38.5877 65.8532 37.4998 65.6251V55.4364C40.1973 55.2083 42.783 54.2554 44.9834 52.6783C47.1838 51.1013 48.9171 48.9589 49.9998 46.4776V67.1389C47.5355 68.4138 44.9037 69.3349 42.1823 69.8751V69.8751ZM74.9998 74.2501C74.9998 74.5817 74.8681 74.8996 74.6336 75.134C74.3992 75.3684 74.0813 75.5001 73.7498 75.5001H53.7498C53.4182 75.5001 53.1003 75.3684 52.8659 75.134C52.6315 74.8996 52.4998 74.5817 52.4998 74.2501V44.2501C52.4998 43.9186 52.6315 43.6007 52.8659 43.3662C53.1003 43.1318 53.4182 43.0001 53.7498 43.0001H73.7498C74.0813 43.0001 74.3992 43.1318 74.6336 43.3662C74.8681 43.6007 74.9998 43.9186 74.9998 44.2501V74.2501Z" fill="#8F90A6"/>
<path d="M71.25 45.5H56.25C55.9185 45.5 55.6005 45.6317 55.3661 45.8661C55.1317 46.1005 55 46.4185 55 46.75V51.75C55 52.0815 55.1317 52.3995 55.3661 52.6339C55.6005 52.8683 55.9185 53 56.25 53H71.25C71.5815 53 71.8995 52.8683 72.1339 52.6339C72.3683 52.3995 72.5 52.0815 72.5 51.75V46.75C72.5 46.4185 72.3683 46.1005 72.1339 45.8661C71.8995 45.6317 71.5815 45.5 71.25 45.5ZM70 50.5H57.5V48H70V50.5Z" fill="#8F90A6"/>
<path d="M61.25 55.5H56.25C55.9185 55.5 55.6005 55.6317 55.3661 55.8661C55.1317 56.1005 55 56.4185 55 56.75V61.75C55 62.0815 55.1317 62.3995 55.3661 62.6339C55.6005 62.8683 55.9185 63 56.25 63H61.25C61.5815 63 61.8995 62.8683 62.1339 62.6339C62.3683 62.3995 62.5 62.0815 62.5 61.75V56.75C62.5 56.4185 62.3683 56.1005 62.1339 55.8661C61.8995 55.6317 61.5815 55.5 61.25 55.5ZM60 60.5H57.5V58H60V60.5Z" fill="#8F90A6"/>
<path d="M71.25 55.5H66.25C65.9185 55.5 65.6005 55.6317 65.3661 55.8661C65.1317 56.1005 65 56.4185 65 56.75V61.75C65 62.0815 65.1317 62.3995 65.3661 62.6339C65.6005 62.8683 65.9185 63 66.25 63H71.25C71.5815 63 71.8995 62.8683 72.1339 62.6339C72.3683 62.3995 72.5 62.0815 72.5 61.75V56.75C72.5 56.4185 72.3683 56.1005 72.1339 55.8661C71.8995 55.6317 71.5815 55.5 71.25 55.5ZM70 60.5H67.5V58H70V60.5Z" fill="#8F90A6"/>
<path d="M71.25 65.5H66.25C65.9185 65.5 65.6005 65.6317 65.3661 65.8661C65.1317 66.1005 65 66.4185 65 66.75V71.75C65 72.0815 65.1317 72.3995 65.3661 72.6339C65.6005 72.8683 65.9185 73 66.25 73H71.25C71.5815 73 71.8995 72.8683 72.1339 72.6339C72.3683 72.3995 72.5 72.0815 72.5 71.75V66.75C72.5 66.4185 72.3683 66.1005 72.1339 65.8661C71.8995 65.6317 71.5815 65.5 71.25 65.5ZM70 70.5H67.5V68H70V70.5Z" fill="#8F90A6"/>
<path d="M61.25 65.5H56.25C55.9185 65.5 55.6005 65.6317 55.3661 65.8661C55.1317 66.1005 55 66.4185 55 66.75V71.75C55 72.0815 55.1317 72.3995 55.3661 72.6339C55.6005 72.8683 55.9185 73 56.25 73H61.25C61.5815 73 61.8995 72.8683 62.1339 72.6339C62.3683 72.3995 62.5 72.0815 62.5 71.75V66.75C62.5 66.4185 62.3683 66.1005 62.1339 65.8661C61.8995 65.6317 61.5815 65.5 61.25 65.5ZM60 70.5H57.5V68H60V70.5Z" fill="#8F90A6"/>
</svg>
