<svg width="30" height="28" viewBox="0 0 30 28" fill="none" xmlns="http://www.w3.org/2000/svg">
<path d="M30 13.9999C30 8.05297 26.5392 2.91453 21.5217 0.488281V27.5114C26.5392 25.0852 30 19.9468 30 13.9999Z" fill="#D80027"/>
<path d="M0 13.9999C0 19.9468 3.46084 25.0852 8.47828 27.5115V0.488281C3.46084 2.91453 0 8.05297 0 13.9999Z" fill="#D80027"/>
<path d="M17.6087 15.9563L20.2173 14.6519L18.913 13.9998V12.6954L16.3043 13.9998L17.6087 11.3911H16.3043L15 9.43457L13.6956 11.3911H12.3912L13.6956 13.9998L11.0869 12.6954V13.9998L9.78259 14.6519L12.3912 15.9563L11.7391 17.2606H14.3478V19.2171H15.6521V17.2606H18.2608L17.6087 15.9563Z" fill="#D80027"/>
</svg>
