<svg width="56" height="64" viewBox="0 0 56 64" fill="none" xmlns="http://www.w3.org/2000/svg">
<g clip-path="url(#clip0_1251:4365)" filter="url(#filter0_d_1251:4365)">
<path d="M48.0704 20.894C48.0704 9.80941 39.0846 0.823596 28.0001 0.823486C16.9984 0.823377 8.08915 9.59908 7.93143 20.5998C7.84459 26.6586 10.4433 32.1118 14.6134 35.8469C18.0562 38.9306 19.9727 43.3709 19.9727 47.9929C19.9727 48.3962 20.2998 48.7234 20.7033 48.7234H35.2914C35.6977 48.7234 36.0271 48.394 36.0271 47.9876C36.0271 43.3069 38.0551 38.8837 41.5148 35.7311C45.5425 32.0607 48.0704 26.7728 48.0704 20.894Z" fill="white"/>
<path d="M47.6 21.3455C47.6 27.4212 45.3637 33.4425 40.4205 37.1C36.7849 39.7909 35.7 43.1493 35.7 47.2935V48.3001C35.7 48.7039 33.4196 49 32.954 49H26.6177V47.2935C26.6177 43.1493 28.7067 39.2112 32.3425 36.5204C37.2857 32.8627 40.4205 27.4211 40.4205 21.3455C40.4205 11.3864 32.0026 3.13278 21 1.64112C22.1716 1.48178 23.3734 1.40004 24.5979 1.40004C36.4 -2.09984 48.3 7.00004 47.6 21.3455Z" fill="#FB335E"/>
<path d="M36.5965 51.0842H19.4034C18.9487 51.0842 18.58 51.4529 18.58 51.9077C18.58 52.3625 18.9487 52.7313 19.4034 52.7313H36.5965C37.0513 52.7313 37.42 52.3626 37.42 51.9077C37.4201 51.453 37.0514 51.0842 36.5965 51.0842Z" fill="#000F49"/>
<path d="M36.5965 54.353H19.4034C18.9487 54.353 18.58 54.7217 18.58 55.1765C18.58 55.6313 18.9487 56.0001 19.4034 56.0001H36.5965C37.0513 56.0001 37.42 55.6314 37.42 55.1765C37.4201 54.7217 37.0514 54.353 36.5965 54.353Z" fill="#000F49"/>
<path d="M44.2509 7.75986C43.9647 7.40625 43.4461 7.35167 43.0927 7.63768C42.7391 7.92381 42.6844 8.44236 42.9705 8.79586C45.7284 12.2041 47.2472 16.5006 47.2472 20.8939C47.2472 26.2954 44.9557 31.4813 40.9603 35.1222C39.1221 36.7973 37.6785 38.8149 36.6964 41.022H28.8237V31.2565L34.8222 25.7514C35.1573 25.4438 35.1796 24.9229 34.8721 24.5877C34.5644 24.2526 34.0436 24.2303 33.7084 24.5379L28.0774 29.7058C28.0519 29.7034 28.0263 29.7019 28.0001 29.7019C27.9993 29.7019 27.9985 29.702 27.9976 29.702L22.2877 24.534C21.9505 24.2287 21.4297 24.2548 21.1245 24.592C20.8192 24.9292 20.8453 25.4501 21.1825 25.7552L27.1767 31.1804V41.022H19.5542C18.8125 39.3165 17.7509 37.7405 16.3991 36.3701C16.0796 36.0462 15.5582 36.0427 15.2344 36.3621C14.9107 36.6816 14.9071 37.203 15.2265 37.5267C16.258 38.5724 17.1004 39.7515 17.7366 41.0219H16.4965C16.0417 41.0219 15.673 41.3906 15.673 41.8454C15.673 42.3002 16.0417 42.6689 16.4965 42.6689H18.4272C18.6212 43.2344 18.778 43.8128 18.8946 44.4015H16.4965C16.0417 44.4015 15.673 44.7702 15.673 45.2251C15.673 45.6798 16.0417 46.0485 16.4965 46.0485H19.1151C19.1377 46.366 19.1494 46.6852 19.1494 47.0061V47.9873C19.1494 48.8471 19.849 49.5467 20.7088 49.5467H35.2915C36.1513 49.5467 36.8509 48.8471 36.8509 47.9873C36.8509 47.3369 36.8939 46.6896 36.9761 46.0485H39.5038C39.9585 46.0485 40.3273 45.6798 40.3273 45.2251C40.3273 44.7703 39.9585 44.4015 39.5038 44.4015H37.279C37.4203 43.8145 37.5963 43.2361 37.8045 42.6689H39.5037C39.9584 42.6689 40.3271 42.3002 40.3271 41.8454C40.3271 41.3906 39.9584 41.0219 39.5037 41.0219H38.5179C39.3913 39.2821 40.589 37.6887 42.0696 36.3394C46.4066 32.3873 48.8942 26.7576 48.8942 20.8938C48.8942 16.1247 47.2451 11.4603 44.2509 7.75986ZM35.204 47.8998H20.7965V47.0063C20.7965 46.6857 20.7852 46.3664 20.7652 46.0488H35.3166C35.2456 46.6615 35.2073 47.2792 35.204 47.8998ZM35.5898 44.4017H20.5703C20.4675 43.815 20.33 43.2366 20.1589 42.6691H36.0608C35.8739 43.238 35.7167 43.8163 35.5898 44.4017Z" fill="#000F49"/>
<path d="M14.4772 7.17292C18.0938 3.60948 22.8964 1.64708 27.9999 1.64708C31.876 1.64708 35.6123 2.79388 38.8047 4.96366C39.181 5.21938 39.6931 5.12159 39.9488 4.74545C40.2044 4.36931 40.1067 3.85711 39.7306 3.60139C36.2639 1.24534 32.2076 0 28 0C27.9997 0 28.0002 0 27.9999 0C22.4613 0 17.2478 2.13095 13.3213 5.99977C9.39412 9.86924 7.18759 15.0501 7.10818 20.5878C7.04277 25.1497 8.42199 29.5029 11.0968 33.1769C11.258 33.3983 11.5088 33.5159 11.7633 33.5159C11.9313 33.5159 12.101 33.4646 12.2473 33.3581C12.615 33.0903 12.6961 32.5753 12.4284 32.2076C9.96506 28.8239 8.69477 24.814 8.75504 20.6114C8.8281 15.5093 10.8603 10.7368 14.4772 7.17292Z" fill="#000F49"/>
</g>
<defs>
<filter id="filter0_d_1251:4365" x="-4" y="0" width="64" height="64" filterUnits="userSpaceOnUse" color-interpolation-filters="sRGB">
<feFlood flood-opacity="0" result="BackgroundImageFix"/>
<feColorMatrix in="SourceAlpha" type="matrix" values="0 0 0 0 0 0 0 0 0 0 0 0 0 0 0 0 0 0 127 0" result="hardAlpha"/>
<feOffset dy="4"/>
<feGaussianBlur stdDeviation="2"/>
<feComposite in2="hardAlpha" operator="out"/>
<feColorMatrix type="matrix" values="0 0 0 0 0 0 0 0 0 0 0 0 0 0 0 0 0 0 0.25 0"/>
<feBlend mode="normal" in2="BackgroundImageFix" result="effect1_dropShadow_1251:4365"/>
<feBlend mode="normal" in="SourceGraphic" in2="effect1_dropShadow_1251:4365" result="shape"/>
</filter>
<clipPath id="clip0_1251:4365">
<rect width="56" height="56" fill="white"/>
</clipPath>
</defs>
</svg>
