<svg width="41" height="41" viewBox="0 0 41 41" fill="none" xmlns="http://www.w3.org/2000/svg">
<path d="M4.29689 34.8309L4.19883 35.3212L4.19883 35.3212L4.29689 34.8309ZM36.7029 34.8309L36.8009 35.3212L36.8009 35.3212L36.7029 34.8309ZM36.9253 6.44837L37.0301 5.95947L36.9253 6.44837ZM4.07442 6.44837L4.17918 6.93727L4.17918 6.93727L4.07442 6.44837ZM16.5951 14.6429L16.8524 14.2142C16.6979 14.1215 16.5055 14.1191 16.3488 14.2078C16.192 14.2966 16.0951 14.4628 16.0951 14.6429H16.5951ZM16.5951 26.3572H16.0951C16.0951 26.5373 16.192 26.7035 16.3488 26.7923C16.5055 26.8811 16.6979 26.8786 16.8524 26.7859L16.5951 26.3572ZM26.357 20.5001L26.6143 20.9288C26.7649 20.8384 26.857 20.6757 26.857 20.5001C26.857 20.3244 26.7649 20.1617 26.6143 20.0713L26.357 20.5001ZM0.476074 10.281V30.7801H1.47607V10.281H0.476074ZM40.5237 30.7801V10.281H39.5237V30.7801H40.5237ZM4.19883 35.3212C14.9596 37.4733 26.0401 37.4733 36.8009 35.3212L36.6048 34.3406C25.9735 36.4669 15.0263 36.4669 4.39495 34.3406L4.19883 35.3212ZM37.0301 5.95947C26.1336 3.62451 14.8661 3.62451 3.96965 5.95947L4.17918 6.93727C14.9375 4.63191 26.0622 4.63191 36.8206 6.93727L37.0301 5.95947ZM40.5237 10.281C40.5237 8.19696 39.0679 6.39613 37.0301 5.95947L36.8206 6.93727C38.3973 7.27514 39.5237 8.6685 39.5237 10.281H40.5237ZM39.5237 30.7801C39.5237 32.511 38.302 34.0012 36.6048 34.3406L36.8009 35.3212C38.9656 34.8883 40.5237 32.9876 40.5237 30.7801H39.5237ZM0.476074 30.7801C0.476074 32.9876 2.03421 34.8883 4.19883 35.3212L4.39495 34.3406C2.69775 34.0012 1.47607 32.511 1.47607 30.7801H0.476074ZM1.47607 10.281C1.47607 8.6685 2.6025 7.27513 4.17918 6.93727L3.96965 5.95947C1.9319 6.39613 0.476074 8.19697 0.476074 10.281H1.47607ZM16.0951 14.6429V26.3572H17.0951V14.6429H16.0951ZM16.8524 26.7859L26.6143 20.9288L26.0998 20.0713L16.3379 25.9285L16.8524 26.7859ZM26.6143 20.0713L16.8524 14.2142L16.3379 15.0717L26.0998 20.9288L26.6143 20.0713Z" fill="#8F90A6"/>
</svg>
